<?xml version="1.0" encoding="UTF-8"?>
<svg width="27px" height="64px" viewBox="0 0 27 64" version="1.1" xmlns="http://www.w3.org/2000/svg" xmlns:xlink="http://www.w3.org/1999/xlink">
    <title>Path_210</title>
    <g id="Page-1" stroke="none" stroke-width="1" fill="none" fill-rule="evenodd">
        <g id="Artboard" transform="translate(-69.000000, -535.000000)" fill="#FFFFFF" fill-rule="nonzero">
            <g id="LPC-plakat-export-1" transform="translate(-0.000000, 0.000000)">
                <g id="Kreslicí_plátno_1_kopie" transform="translate(-0.074000, 0.000000)">
                    <path d="M83.374,593.772 C82.374,592.126 81.355,590.572 80.474,588.95 C76.6807661,582.070611 74.9800936,574.23285 75.581,566.4 C76.1518641,557.505113 79.6087198,549.039223 85.427,542.287 C87.435523,539.923071 89.712529,537.801109 92.212,535.964 C92.7314732,535.499498 93.4685147,535.367714 94.1167628,535.623426 C94.765011,535.879138 95.2135965,536.478611 95.2760584,537.172667 C95.3385203,537.866722 95.0041759,538.536655 94.412,538.904 C86.9863198,544.348054 81.8482093,552.356906 79.995,561.376 C78.109316,569.806664 79.2573113,578.632277 83.237,586.3 C84.116,588.033 85.237,589.643 86.247,591.309 C86.2996447,591.380143 86.3578255,591.447018 86.421,591.509 L86.715,591.524 C86.6548995,591.322783 86.6239185,591.113998 86.623,590.904 C87.186,587.157 87.77,583.413 88.323,579.666 C88.3781477,578.900672 88.8778755,578.239198 89.599,577.977 C90.1519072,577.788503 90.761626,577.875918 91.2393003,578.212169 C91.7169746,578.54842 92.0049396,579.092915 92.014,579.677 C92.0096131,579.906543 91.9861996,580.135327 91.944,580.361 C91.138,585.639 90.3306667,590.916333 89.522,596.193 C89.285,597.74 88.522,598.303 86.98,598.068 C81.703,597.262 76.424,596.468 71.15,595.635 C70.7012337,595.567538 70.2763979,595.389148 69.914,595.116 C69.3000613,594.607882 69.1158618,593.744421 69.469,593.03 C69.8019506,592.261583 70.623406,591.826963 71.446,591.984 C73.434,592.273 75.419,592.584 77.406,592.884 C79.206,593.158 81.003,593.432 82.797,593.706 C82.983,593.738 83.168,593.75 83.374,593.772 Z" id="Path_210"></path>
                </g>
            </g>
        </g>
    </g>
</svg>