<?xml version="1.0" encoding="UTF-8"?>
<svg width="78px" height="99px" viewBox="0 0 78 99" version="1.1" xmlns="http://www.w3.org/2000/svg" xmlns:xlink="http://www.w3.org/1999/xlink">
    <title>Group_6</title>
    <g id="Page-1" stroke="none" stroke-width="1" fill="none" fill-rule="evenodd" stroke-linecap="round">
        <g id="LPC-plakat-export-1" transform="translate(-591.000000, -189.000000)" stroke="#FFFFFF" stroke-width="2.5">
            <g id="Kreslicí_plátno_1_kopie" transform="translate(-0.074000, 0.000000)">
                <g id="Group_6" transform="translate(593.274000, 190.323000)">
                    <path d="M0,96.408 L0,82.764 C0,72.910443 6.26290007,64.1463405 15.585,60.954 L26.293,57.286 L26.293,52.986" id="Path_19"></path>
                    <path d="M73.705,96.408 L73.705,82.764 C73.705,72.910443 67.4420999,64.1463405 58.12,60.954 L47.412,57.286 L47.412,52.986" id="Path_20"></path>
                    <path d="M19.329,18.361 L19.534,21.911 L19.222,21.911 C18.2440977,21.9101566 17.319941,22.3583122 16.7150653,23.1266995 C16.1101896,23.8950867 15.891562,24.8986359 16.122,25.849 L16.296,26.567 C16.7528522,28.4478143 18.2871194,29.8750762 20.196,30.195 L20.957,37.589 C21.2260653,40.2058156 22.3309693,42.6663398 24.108,44.606 L30.147,51.194 C31.8937387,53.1007466 34.3611196,54.1860313 36.947,54.1850007 L36.947,54.1850007 C39.4467191,54.1850007 41.8392702,53.169878 43.576,51.372 L49.69,45.047 C51.5687577,43.1034237 52.7509666,40.5923727 53.052,37.906 L53.936,30.029 C55.5485413,29.5220088 56.7788102,28.2090647 57.18,26.567 L57.354,25.849 C57.568645,24.9572844 57.3869305,24.0163116 56.8556969,23.2686353 C56.3244632,22.5209589 55.4956866,22.039732 54.583,21.949 L54.598,17.927" id="Path_21"></path>
                    <line x1="8.37" y1="92.823" x2="20.72" y2="92.823" id="Line_5"></line>
                    <line x1="16.736" y1="86.449" x2="16.736" y2="92.823" id="Line_6"></line>
                    <path d="M26.378,57.183 L30.97,64.294 C32.2500476,66.2767613 34.448944,67.4743106 36.809,67.4740001 L36.809,67.4740001 C39.1722372,67.4737013 41.3734797,66.2728866 42.653,64.286 L47.227,57.186" id="Path_22"></path>
                    <path d="M13.549,82.863 L8.768,82.863 L8.768,72.206 C8.76855217,67.3107767 12.7367767,63.3425522 17.632,63.342 L18.632,63.342 C23.5270615,63.3425522 27.495,67.3109385 27.495,72.206 L27.495,82.863 L21.918,82.863" id="Path_23"></path>
                    <path d="M17.0489999,61.877 C17.0487348,59.3890961 18.0368648,57.0029995 19.7959848,55.2436919 C21.5551048,53.4843844 23.9410961,52.496 26.429,52.496" id="Path_24"></path>
                    <path d="M47.592,52.892 C52.7725927,52.892 56.9724478,57.0914073 56.973,62.272 L56.973,73.302" id="Path_25"></path>
                    <path d="M64.1210001,80.513 C64.1204477,84.0751064 61.2324399,86.9623681 57.6703334,86.962 C54.108227,86.9616318 51.220816,84.0737732 51.2210001,80.5116667 C51.2211841,76.9495603 54.1088935,74.062 57.671,74.062 C59.3818196,74.062 61.0225539,74.7416889 62.2321923,75.9515148 C63.4418307,77.1613407 64.1212652,78.8021804 64.1210001,80.513 L64.1210001,80.513 Z" id="Path_26"></path>
                    <line x1="55.379" y1="80.473" x2="60.16" y2="80.473" id="Line_7"></line>
                    <path d="M54.582,13.943 L19.126,13.943 L19.126,7.777 C19.1265522,3.48171975 22.6087197,0 26.904,0 L46.804,0 C51.0991185,0 54.581,3.4818815 54.581,7.777 L54.582,13.943 Z" id="Path_27"></path>
                </g>
            </g>
        </g>
    </g>
</svg>