<?xml version="1.0" encoding="UTF-8"?>
<svg width="26px" height="64px" viewBox="0 0 26 64" version="1.1" xmlns="http://www.w3.org/2000/svg" xmlns:xlink="http://www.w3.org/1999/xlink">
    <title>Path_211</title>
    <g id="Page-1" stroke="none" stroke-width="1" fill="none" fill-rule="evenodd">
        <g id="Artboard" transform="translate(-332.000000, -535.000000)" fill="#FFFFFF" fill-rule="nonzero">
            <g id="LPC-plakat-export-1" transform="translate(-0.000000, 0.000000)">
                <g id="Kreslicí_plátno_1_kopie" transform="translate(-0.074000, 0.000000)">
                    <path d="M343.974,593.772 C344.974,592.126 345.994,590.572 346.874,588.95 C350.670156,582.071532 352.373303,574.233579 351.774,566.4 C351.203994,557.505099 347.747423,549.039045 341.929,542.287 C339.920228,539.923309 337.643251,537.801375 335.144,535.964 C334.624527,535.499498 333.887485,535.367714 333.239237,535.623426 C332.590989,535.879138 332.142404,536.478611 332.079942,537.172667 C332.01748,537.866722 332.351824,538.536655 332.944,538.904 C340.36968,544.348054 345.507791,552.356906 347.361,561.376 C349.244716,569.807268 348.094966,578.632759 344.114,586.3 C343.235,588.033 342.114,589.643 341.103,591.309 C341.051005,591.380369 340.993137,591.447269 340.93,591.509 L340.636,591.524 C340.696296,591.322852 340.726951,591.11399 340.727,590.904 C340.165,587.157 339.581,583.413 339.022,579.666 C338.967768,578.90064 338.468208,578.23887 337.747,577.977 C337.194093,577.788503 336.584374,577.875918 336.1067,578.212169 C335.629025,578.54842 335.34106,579.092915 335.332,579.677 C335.336391,579.906543 335.359805,580.135326 335.402,580.361 C336.208,585.639 337.015333,590.916333 337.824,596.193 C338.061,597.74 338.824,598.303 340.365,598.068 C345.643,597.262 350.922,596.468 356.196,595.635 C356.644766,595.567538 357.069602,595.389148 357.432,595.116 C358.045939,594.607882 358.230138,593.744421 357.877,593.03 C357.544049,592.261583 356.722594,591.826963 355.9,591.984 C353.911,592.273 351.926,592.584 349.94,592.884 L344.549,593.706 C344.367,593.738 344.183,593.75 343.974,593.772 Z" id="Path_211"></path>
                </g>
            </g>
        </g>
    </g>
</svg>